PathFileType	4	(X/Y/Z)	/Users/visionmauri/Downloads/Videos/OAW13-top_Sports2D/OAW13-top_Sports2D_px_person00.trc
DataRate	CameraRate	NumFrames	NumMarkers	Units	OrigDataRate	OrigDataStartFrame	OrigNumFrames
27.0	27.0	9	22	m	27.0	988	1977
Frame#	Time	Hip			RHip			RKnee			RAnkle			RBigToe			RSmallToe			RHeel			LHip			LKnee			LAnkle			LBigToe			LSmallToe			LHeel			Neck			Head			Nose			RShoulder			RElbow			RWrist			LShoulder			LElbow			LWrist			
		X1	Y1	Z1	X2	Y2	Z2	X3	Y3	Z3	X4	Y4	Z4	X5	Y5	Z5	X6	Y6	Z6	X7	Y7	Z7	X8	Y8	Z8	X9	Y9	Z9	X10	Y10	Z10	X11	Y11	Z11	X12	Y12	Z12	X13	Y13	Z13	X14	Y14	Z14	X15	Y15	Z15	X16	Y16	Z16	X17	Y17	Z17	X18	Y18	Z18	X19	Y19	Z19	X20	Y20	Z20	X21	Y21	Z21	X22	Y22	Z22
988	36.611111111111114	542.7044321096058	848.9105889511649	0.0	569.4310936411969	851.4682266324459	0.0	562.3902856136107	952.2738637951029	0.0	549.3342185895233	1060.9867073030014	0.0	542.2375368573432	1078.3489294784251	0.0	563.9833324074009	1085.1865505208277	0.0	546.1601222761708	1082.1977053742773	0.0	516.6983067278703	849.4721223505043	0.0	518.2149234959696	940.8606291306945	0.0	520.455027035944	1030.770359384519	0.0	522.4935502705919	1040.4205949077648	0.0	506.6259984977901	1046.4380148096664	0.0	521.9218548534948	1051.0186409442363	0.0	554.2569818926681	713.9921246780584	0.0	549.9494319592332	669.5393742697612	0.0	555.3299491380704	711.4504778291101	0.0	600.1565559999593	724.1969732672122	0.0	632.1410388880231	804.5736338186995	0.0	620.8355068534299	852.9940815579805	0.0	508.1351832372085	718.6226364765879	0.0	483.2052255667438	791.667060474959	0.0	461.8933164799744	862.1558634153843	0.0
989	36.64816689158795	541.6538713560311	848.6848620366752	0.0	568.0842985409886	850.851390882274	0.0	561.560177749404	952.4924863068488	0.0	549.416051555066	1060.36351816938	0.0	541.7851590341675	1079.8928970774168	0.0	563.5812150572017	1085.7002531113162	0.0	545.4904991616515	1080.1868566618002	0.0	516.032799586662	848.7054766590961	0.0	518.3860837416136	940.89500835955	0.0	520.0449400782296	1034.755259384777	0.0	525.1259350254536	1046.6084672159543	0.0	508.977780312021	1051.7614102847697	0.0	521.8779252149865	1054.1834806766153	0.0	552.9154143154291	714.2816605205954	0.0	549.1458269381528	669.4982742057648	0.0	553.9601441760086	711.7436830981741	0.0	598.2974721648353	723.288191221926	0.0	632.2755357149889	803.98253721207	0.0	619.5548403196107	851.6663738877738	0.0	507.0657793250516	718.8588750024326	0.0	481.89285847541515	791.6633609709585	0.0	459.84461129772416	861.9514415824702	0.0
990	36.68522267206478	540.8374514169018	848.4181044193731	0.0	567.0813477212565	850.178317390043	0.0	561.0089492992068	952.0418511072004	0.0	549.6407065417008	1058.624934014642	0.0	541.463441512189	1080.519442546532	0.0	562.9648845441743	1085.3687973083977	0.0	545.2914384332513	1078.1408787178557	0.0	515.9173760963537	847.5673010107085	0.0	517.9861827096761	940.172290973601	0.0	519.6039015210418	1036.233528647622	0.0	526.6845385528352	1047.5866490504259	0.0	510.1749582644926	1053.1145578564578	0.0	521.7540133863093	1055.8217815870375	0.0	551.8621461344565	714.790276028742	0.0	548.350169000744	668.979541074137	0.0	552.930813276314	711.8435748650675	0.0	596.7748470379677	722.7592745344941	0.0	631.7152741999879	803.2029431010004	0.0	618.3931981920214	850.55021441366	0.0	506.1572405920274	718.953597955017	0.0	480.7855775856918	791.6732568313466	0.0	458.1854450539375	861.2006209608732	0.0
991	36.722278452541616	539.982884098385	846.6026980569683	0.0	566.5983252714077	848.2830398293019	0.0	560.8507056005685	949.8720504640113	0.0	550.1432328578497	1055.264065274037	0.0	541.4885557940418	1079.7099680222232	0.0	563.0349476633969	1084.126361345468	0.0	545.4931219435399	1075.8372727864996	0.0	516.0717916898894	845.6748853063049	0.0	517.6549662661414	938.5112617342758	0.0	519.7904155869525	1032.3702438436142	0.0	528.5017481261813	1047.221117301607	0.0	510.17579170283835	1052.4101431517856	0.0	521.4956681386683	1053.9647314217825	0.0	550.6220775467033	715.2042165768834	0.0	547.317295470373	667.8412596292633	0.0	552.3242842140526	711.291443737945	0.0	595.5479488636482	722.7161869618546	0.0	629.7196192805998	801.6527261697663	0.0	617.3797351284119	850.0832147465959	0.0	504.8439352751602	719.0728022942053	0.0	479.4916691992357	791.5107315856354	0.0	456.84695208823433	860.4384098587242	0.0
992	36.75933423301845	539.0086851235059	844.2637013176212	0.0	565.7266046465095	845.6896925877074	0.0	561.2694280581397	946.8485396512853	0.0	551.2613166245359	1050.379983078755	0.0	542.8397952242352	1076.5597920217513	0.0	564.4121554992685	1080.7112839078916	0.0	545.9809574210336	1072.4690942155567	0.0	515.6186176905748	843.8333647983778	0.0	517.9869731941371	936.453101789464	0.0	520.5023732029393	1026.4699157583852	0.0	530.9427038220515	1048.4976440267512	0.0	509.96190993634644	1052.0039341914264	0.0	521.4468920202539	1050.0009421769203	0.0	549.2782218096501	715.2039492433697	0.0	546.4637655072942	667.2210045488749	0.0	551.6732026025231	710.3235535128955	0.0	594.1638066793571	722.428874664863	0.0	626.8595057951102	799.7798696676456	0.0	616.2128139706948	850.3222251483287	0.0	503.38823575662724	719.0709321008726	0.0	478.1854875041241	791.3134039715012	0.0	455.84953835522305	859.6193277696166	0.0
993	36.79639001349528	538.1036816104462	843.2439915764627	0.0	563.9731973539223	843.8387864586908	0.0	561.9258347048788	944.2109923453426	0.0	553.0323436883449	1043.8766739989157	0.0	545.5935447670107	1071.2237990847088	0.0	566.4251069077418	1074.8049321453007	0.0	547.220648165769	1067.102511044068	0.0	514.3581274880916	842.8627570634585	0.0	518.6473441477824	935.0453453306822	0.0	521.2350456716481	1023.236467661719	0.0	532.613449767854	1050.4337347085784	0.0	510.06350585464577	1052.1719242299778	0.0	521.8191593593377	1047.178563424515	0.0	548.1761119467747	715.1310619276303	0.0	546.2234879209786	667.2461401530081	0.0	551.297614084746	709.5503640346375	0.0	592.8911199719198	721.7181628320516	0.0	624.1142868940397	798.1990237529429	0.0	615.025807198329	851.3608725520551	0.0	502.3465340167598	718.7731083750311	0.0	477.3044796705065	791.0320200954371	0.0	454.92750433918957	858.5158266782125	0.0
994	36.83344579397211	537.3031698940713	843.0963664539655	0.0	562.2137086539093	843.1992967541411	0.0	562.2516552541363	941.7550099336996	0.0	554.7689727176743	1036.466509612624	0.0	548.235853723695	1065.782429983489	0.0	567.856906520012	1068.5356279187722	0.0	549.4147364775092	1060.1236485432944	0.0	513.1578407500052	842.2528075297613	0.0	518.7272029769099	934.6920895812495	0.0	521.6045071508449	1023.960739969035	0.0	532.6892264847904	1050.512377402232	0.0	510.40313254126204	1052.0786040659327	0.0	522.4307265387496	1047.4307130700408	0.0	547.5626326325075	715.8366232933871	0.0	546.2819166693426	666.6153115126094	0.0	550.8619982576463	709.2122386499923	0.0	592.3482080612996	721.0557794029878	0.0	621.4778837680791	797.1093427252277	0.0	614.0583976369956	853.6825466744478	0.0	501.80499230784943	718.340951521816	0.0	476.6817418046925	790.4142742922278	0.0	453.74089649245883	857.2734993778762	0.0
995	36.870501574448944	536.6281479645585	842.4309507012666	0.0	561.4550729773867	843.164228991436	0.0	562.3081851691513	939.0792160115707	0.0	555.8714407879294	1030.5164881622945	0.0	549.6978393886142	1062.4126524468115	0.0	568.3700992137947	1064.4215610316046	0.0	551.9737428735951	1054.3107241449827	0.0	512.6438027168768	841.4589245989083	0.0	518.1348452961304	934.5910992619312	0.0	521.6382179692802	1026.7308390214362	0.0	532.2436100588706	1047.983129707823	0.0	511.0168553750125	1051.1157729054737	0.0	523.0357604768978	1049.6252328841801	0.0	547.5911222576733	717.1959299364705	0.0	546.4252650096993	665.1510811282628	0.0	549.4441873651896	709.4799308770878	0.0	592.4417946847418	720.5966346311827	0.0	618.7095409639052	796.5642346727816	0.0	613.0915545585738	857.1352730952294	0.0	501.69834968335584	718.0445616441457	0.0	475.9143278143586	789.4655981101347	0.0	452.60862688109984	856.1645424145831	0.0
996	36.90755735492578	536.2476598461366	841.5538420322522	0.0	561.6762733298208	843.2748848661067	0.0	562.5043891970705	936.7854460335803	0.0	556.5274228063564	1027.996784843477	0.0	550.6063208257247	1060.153410697944	0.0	568.7988536813955	1061.9635037306664	0.0	553.9164021849714	1052.1134616594966	0.0	512.6590179281036	841.1314153768492	0.0	517.6679055122265	934.1539038748346	0.0	521.579106094352	1028.7794331581686	0.0	532.3530767442602	1045.137559722171	0.0	511.8274795164783	1049.5307133949734	0.0	523.4624091507567	1051.1520430551466	0.0	548.0460325111789	716.6843522249051	0.0	546.8369991012605	663.7165674290661	0.0	547.8635406837413	709.4507708799316	0.0	592.6077522081407	720.0812374084906	0.0	616.1643416134223	796.4584065994868	0.0	612.0714903407791	860.4167943295204	0.0	502.09251806496866	717.5272346308006	0.0	475.2369165711685	788.2918783084308	0.0	452.2041447110923	854.7352547420548	0.0
